<svg xmlns="http://www.w3.org/2000/svg" width="19.26" height="20.197" viewBox="0 0 19.26 20.197">
  <g id="Group_3384" data-name="Group 3384" transform="translate(-321.038 -233.309)">
    <path id="Path_4557" data-name="Path 4557" d="M337.812,248.638h-8.724c-2.056,0-2.63-1.893-2.847-2.6-.2-.64-2.552-9.23-3.03-10.974l-1.784-.623a.579.579,0,1,1,.381-1.094l2.072.723a.575.575,0,0,1,.368.393c.029.106,2.893,10.554,3.08,11.166.284.935.656,1.855,1.76,1.855h8.724a.579.579,0,0,1,0,1.159Z" fill="#fff"/>
    <path id="Path_4558" data-name="Path 4558" d="M336.076,245.7h-9.06a.579.579,0,0,1,0-1.159h9.06a2.154,2.154,0,0,0,2-1.714c.229-.733.911-3.892,1.045-4.567a.512.512,0,0,0-.083-.45,1.224,1.224,0,0,0-.939-.3H324.7a.58.58,0,0,1,0-1.159h13.4a2.31,2.31,0,0,1,1.836.726,1.673,1.673,0,0,1,.323,1.412c-.115.58-.816,3.853-1.076,4.687A3.292,3.292,0,0,1,336.076,245.7Z" fill="#fff"/>
    <path id="Path_4559" data-name="Path 4559" d="M329.088,253.506a2.17,2.17,0,1,1,2.17-2.17A2.173,2.173,0,0,1,329.088,253.506Zm0-3.181a1.011,1.011,0,1,0,1.012,1.011A1.012,1.012,0,0,0,329.088,250.325Z" fill="#fff"/>
    <path id="Path_4560" data-name="Path 4560" d="M336.27,253.506a2.17,2.17,0,1,1,2.168-2.17A2.173,2.173,0,0,1,336.27,253.506Zm0-3.181a1.011,1.011,0,1,0,1.01,1.011A1.012,1.012,0,0,0,336.27,250.325Z" fill="#fff"/>
  </g>
</svg>
