<svg xmlns="http://www.w3.org/2000/svg" xmlns:xlink="http://www.w3.org/1999/xlink" width="284.888" height="38.239" viewBox="0 0 284.888 38.239">
  <defs>
    <clipPath id="clip-path">
      <rect id="長方形_12635" data-name="長方形 12635" width="284.888" height="38.239" fill="none"/>
    </clipPath>
  </defs>
  <g id="rionet_salesport_logo" transform="translate(142.444 19.12)">
    <g id="グループ_3774" data-name="グループ 3774" transform="translate(-142.444 -19.12)">
      <line id="線_362" data-name="線 362" x1="12.549" y2="7.269" transform="translate(29.167 2.113)" fill="none" stroke="#0a4ce0" stroke-linecap="round" stroke-miterlimit="10" stroke-width="1.05"/>
      <line id="線_363" data-name="線 363" x2="12.549" y2="7.269" transform="translate(29.167 15.975)" fill="none" stroke="#0a4ce0" stroke-linecap="round" stroke-miterlimit="10" stroke-width="1.05"/>
      <g id="グループ_3773" data-name="グループ 3773" clip-path="url(#clip-path)">
        <path id="パス_7968" data-name="パス 7968" d="M63.2,33.667c0-.676.339-1.183.848-1.183s.848-.507.848-1.183V14.057c0-.676-.339-1.183-.848-1.183s-.848-.507-.848-1.183v-.507A1.185,1.185,0,0,1,64.387,10h7.631l1.526.254a9.6,9.6,0,0,1,2.8,1.183,7.367,7.367,0,0,1,2.2,2.113,5.565,5.565,0,0,1,.848,3.127,7.422,7.422,0,0,1-1.357,4.564,7.632,7.632,0,0,1-2.883,1.944,1.1,1.1,0,0,0-.594,1.521l3.052,6.508a2.035,2.035,0,0,0,1.7,1.1h1.017A1.185,1.185,0,0,1,81.6,33.667v.507a1.185,1.185,0,0,1-1.187,1.183H77.529a2.035,2.035,0,0,1-1.7-1.1L71.509,25.13a1.779,1.779,0,0,0-1.272-1.1H68.626c-.424,0-.763.507-.763,1.183V31.3a1.185,1.185,0,0,0,1.187,1.183h1.781a1.185,1.185,0,0,1,1.187,1.183v.507a1.185,1.185,0,0,1-1.187,1.183H64.387A1.185,1.185,0,0,1,63.2,34.174Zm4.663-13.778a1.185,1.185,0,0,0,1.187,1.183h3.137a5.525,5.525,0,0,0,1.441-.338,4.921,4.921,0,0,0,1.7-1.014,3.549,3.549,0,0,0,.848-1.352,4.636,4.636,0,0,0,.254-1.437A2.951,2.951,0,0,0,76,15.41a4.567,4.567,0,0,0-1.1-1.352,5.433,5.433,0,0,0-1.7-.845l-.933-.254H69.05a1.185,1.185,0,0,0-1.187,1.183Z" transform="translate(-9.614 -1.547)" fill="#0a4ce0"/>
        <path id="パス_7969" data-name="パス 7969" d="M87.5,34.5a1.185,1.185,0,0,1,1.187-1.183h.17a1.185,1.185,0,0,0,1.187-1.183V26.642a1.185,1.185,0,0,0-1.187-1.183h-.17A1.185,1.185,0,0,1,87.5,24.275v-.507a1.185,1.185,0,0,1,1.187-1.183h3.222A1.185,1.185,0,0,1,93.1,23.768v8.368a1.185,1.185,0,0,0,1.187,1.183h.085A1.185,1.185,0,0,1,95.64,34.5v.507a1.185,1.185,0,0,1-1.272,1.183H88.687A1.185,1.185,0,0,1,87.5,35.01ZM89.7,17.26a1.773,1.773,0,0,1,.594-1.352A1.868,1.868,0,0,1,91.57,15.4a1.947,1.947,0,0,1,1.865,1.944,1.773,1.773,0,0,1-.594,1.352,1.848,1.848,0,0,1-2.544,0,1.773,1.773,0,0,1-.594-1.352" transform="translate(-13.311 -2.383)" fill="#0a4ce0"/>
        <path id="パス_7970" data-name="パス 7970" d="M99.6,30.685a6.829,6.829,0,0,1,.594-2.789,7.014,7.014,0,0,1,1.526-2.282,7.378,7.378,0,0,1,2.289-1.521,7.226,7.226,0,0,1,2.883-.592,7.473,7.473,0,0,1,5.172,2.113,7.2,7.2,0,0,1,1.526,7.861,7.352,7.352,0,0,1-1.526,2.282,7.209,7.209,0,0,1-2.289,1.521,7.4,7.4,0,0,1-2.883.592,7.293,7.293,0,0,1-6.7-4.4,6.829,6.829,0,0,1-.593-2.789m3.052,0a4.182,4.182,0,0,0,2.544,3.8,4.252,4.252,0,0,0,3.307,0,4.409,4.409,0,0,0,1.357-.93,4.057,4.057,0,0,0,.933-1.352,4.214,4.214,0,0,0,0-3.3,4.318,4.318,0,0,0-2.289-2.282,4.251,4.251,0,0,0-3.307,0,4.07,4.07,0,0,0-1.357.93,4.395,4.395,0,0,0-.933,1.352,4.047,4.047,0,0,0-.339,1.606" transform="translate(-15.151 -3.636)" fill="#0a4ce0"/>
        <path id="パス_7971" data-name="パス 7971" d="M128.744,35.754a1.185,1.185,0,0,1,1.187-1.183h.424a1.185,1.185,0,0,0,1.187-1.183V30.176a12.473,12.473,0,0,0-.254-2.367l-.424-.507a2.8,2.8,0,0,0-2.035-.761,5.016,5.016,0,0,0-1.781.338,4.92,4.92,0,0,0-1.526.93,4.566,4.566,0,0,0-1.017,1.352l-.254.592a22.207,22.207,0,0,0-.17,2.367v1.352a1.185,1.185,0,0,0,1.187,1.183,1.185,1.185,0,0,1,1.187,1.183v.507a1.185,1.185,0,0,1-1.187,1.183h-5.681a1.185,1.185,0,0,1-1.187-1.183v-.592a1.185,1.185,0,0,1,1.187-1.183h.339a1.185,1.185,0,0,0,1.187-1.183V27.894a1.185,1.185,0,0,0-1.187-1.183h0a1.185,1.185,0,0,1-1.187-1.183V25.02a1.185,1.185,0,0,1,1.187-1.183h2.713c.678,0,1.187.085,1.187.169a9.648,9.648,0,0,0,.085,1.268v.93c.085.592.339.676.678.085a6.094,6.094,0,0,1,1.7-1.775,6.544,6.544,0,0,1,3.561-1.014,4.843,4.843,0,0,1,3.392,1.1,3.8,3.8,0,0,1,1.017,1.775,13.144,13.144,0,0,1,.254,2.367v4.649a1.185,1.185,0,0,0,1.1,1.183,1.185,1.185,0,0,1,1.1,1.183v.507a1.185,1.185,0,0,1-1.187,1.183h-5.6a1.185,1.185,0,0,1-1.187-1.183Z" transform="translate(-18.011 -3.635)" fill="#0a4ce0"/>
        <path id="パス_7972" data-name="パス 7972" d="M154.3,28.387a1.267,1.267,0,0,1-.763,1.521l-3.815,1.437-3.815,1.437a.76.76,0,0,0-.339,1.268l.594.338a4.42,4.42,0,0,0,2.035.423,3.314,3.314,0,0,0,1.781-.507,1.36,1.36,0,0,1,1.781.254l.339.338a1.181,1.181,0,0,1-.17,1.691,5.261,5.261,0,0,1-1.187.676,6.291,6.291,0,0,1-2.544.507,7.163,7.163,0,0,1-6.7-4.4,7.2,7.2,0,0,1,1.526-7.861,7.378,7.378,0,0,1,2.289-1.521A7.226,7.226,0,0,1,148.2,23.4a5.356,5.356,0,0,1,2.2.423,6.19,6.19,0,0,1,1.865,1.268,8.285,8.285,0,0,1,1.441,1.944A7.767,7.767,0,0,1,154.3,28.3m-6.02-1.86a4.162,4.162,0,0,0-3.052,1.1,3.549,3.549,0,0,0-1.017,1.606c-.17.676.254,1.014.848.761l2.289-.845,2.289-.845c.594-.254.763-.761.424-1.183l-.424-.254a2.719,2.719,0,0,0-1.441-.423" transform="translate(-21.438 -3.621)" fill="#0a4ce0"/>
        <path id="パス_7973" data-name="パス 7973" d="M161.237,14.583a1.185,1.185,0,0,1,1.187-1.183h.594a1.185,1.185,0,0,1,1.187,1.183v6.508a1.185,1.185,0,0,0,1.187,1.183h1.187a1.185,1.185,0,0,1,1.187,1.183v.592a1.185,1.185,0,0,1-1.187,1.183h-1.187a1.185,1.185,0,0,0-1.187,1.183v5.41a1.185,1.185,0,0,0,1.187,1.183h.339a1.185,1.185,0,0,1,1.187,1.183V34.7a1.185,1.185,0,0,1-1.187,1.183h-3.392a1.185,1.185,0,0,1-1.187-1.183V26.417a1.185,1.185,0,0,0-1.187-1.183h-.678A1.185,1.185,0,0,1,158.1,24.05v-.592a1.185,1.185,0,0,1,1.187-1.183h.678a1.185,1.185,0,0,0,1.187-1.183Z" transform="translate(-24.05 -2.074)" fill="#0a4ce0"/>
        <path id="パス_7974" data-name="パス 7974" d="M184.763,32.89A3.965,3.965,0,0,1,184,30.777V29a1.185,1.185,0,0,1,1.187-1.183h.509A1.185,1.185,0,0,1,186.883,29v.845a2.449,2.449,0,0,0,1.017,1.86l1.272.592a7.822,7.822,0,0,0,2.968.507,6.122,6.122,0,0,0,1.781-.254,4.839,4.839,0,0,0,1.526-.761,3.806,3.806,0,0,0,1.1-1.352,4.047,4.047,0,0,0,.424-1.86,4.3,4.3,0,0,0-.848-2.874,5.934,5.934,0,0,0-2.2-1.606l-2.883-.93a13.677,13.677,0,0,1-2.883-1.1,6.268,6.268,0,0,1-2.2-1.944,6.072,6.072,0,0,1-.933-3.466,7.332,7.332,0,0,1,.339-2.367,6,6,0,0,1,1.187-2.2,6.189,6.189,0,0,1,2.2-1.606A8.332,8.332,0,0,1,192.14,9.9h1.441l1.611.254,1.7.676.848.423a2.7,2.7,0,0,1,.933,1.944v1.183a1.185,1.185,0,0,1-1.187,1.183h-.509a1.1,1.1,0,0,1-1.187-1.1,1.606,1.606,0,0,0-1.017-1.437l-.594-.169L192.14,12.6A3.907,3.907,0,0,0,189,13.787a4.218,4.218,0,0,0-1.017,2.874,2.867,2.867,0,0,0,.509,1.775,4.152,4.152,0,0,0,1.357,1.1l1.95.761,2.2.676,2.2.93a6.953,6.953,0,0,1,1.95,1.352,6.422,6.422,0,0,1,1.357,2.113,8.261,8.261,0,0,1,.509,3.127,7,7,0,0,1-.594,2.958,6.763,6.763,0,0,1-1.611,2.2,7.212,7.212,0,0,1-2.459,1.437,8.672,8.672,0,0,1-2.883.507,11.735,11.735,0,0,1-2.713-.338,12.4,12.4,0,0,1-2.374-.845,10.434,10.434,0,0,1-1.95-1.183l-.594-.423" transform="translate(-27.99 -1.531)" fill="#0a4ce0"/>
        <path id="パス_7975" data-name="パス 7975" d="M204.67,30.7a6.744,6.744,0,0,1,.594-2.7,7.268,7.268,0,0,1,1.526-2.282,7.379,7.379,0,0,1,2.374-1.521,7.226,7.226,0,0,1,2.883-.592,5.527,5.527,0,0,1,1.781.254l1.441.676,1.017.676.254.254c.085.085.17,0,.17-.338V24.53c0-.338.594-.592,1.187-.592h.085a1.185,1.185,0,0,1,1.187,1.183v8.368a1.185,1.185,0,0,0,1.187,1.183h.339a1.185,1.185,0,0,1,1.187,1.183v.507a1.185,1.185,0,0,1-1.187,1.183h-3.052c-.678,0-1.187-.169-1.187-.338v-.761c0-.169-.085-.254-.17-.169l-.254.169-.933.592-1.441.507a6.973,6.973,0,0,1-1.865.254,7.4,7.4,0,0,1-2.883-.592,7,7,0,0,1-3.815-3.8,6.745,6.745,0,0,1-.594-2.7m3.052,0a4.282,4.282,0,0,0,8.564,0,4.051,4.051,0,0,0-1.187-2.958,4.674,4.674,0,0,0-6.19,0,4.051,4.051,0,0,0-1.187,2.958" transform="translate(-31.109 -3.652)" fill="#0a4ce0"/>
        <path id="パス_7976" data-name="パス 7976" d="M227.8,33.327a1.185,1.185,0,0,1,1.187-1.183h.339a1.185,1.185,0,0,0,1.187-1.183v-19.1a1.185,1.185,0,0,0-1.187-1.183h0a1.185,1.185,0,0,1-1.187-1.183V8.983A1.185,1.185,0,0,1,229.326,7.8h3.052a1.185,1.185,0,0,1,1.187,1.183V30.96a1.185,1.185,0,0,0,1.187,1.183,1.185,1.185,0,0,1,1.187,1.183v.507a1.185,1.185,0,0,1-1.187,1.183h-5.681a1.185,1.185,0,0,1-1.187-1.183Z" transform="translate(-34.653 -1.207)" fill="#0a4ce0"/>
        <path id="パス_7977" data-name="パス 7977" d="M253.2,28.387a1.267,1.267,0,0,1-.763,1.521l-3.815,1.437-3.815,1.437a.76.76,0,0,0-.339,1.268l.593.338a4.421,4.421,0,0,0,2.035.423,3.314,3.314,0,0,0,1.781-.507,1.36,1.36,0,0,1,1.781.254L251,34.9a1.181,1.181,0,0,1-.17,1.691,5.262,5.262,0,0,1-1.187.676,6.291,6.291,0,0,1-2.544.507,7.163,7.163,0,0,1-6.7-4.4,7.2,7.2,0,0,1,1.526-7.861,7.378,7.378,0,0,1,2.289-1.521A7.226,7.226,0,0,1,247.1,23.4a5.356,5.356,0,0,1,2.2.423,6.19,6.19,0,0,1,1.865,1.268,8.285,8.285,0,0,1,1.441,1.944A7.681,7.681,0,0,1,253.2,28.3m-6.02-1.86a4.162,4.162,0,0,0-3.052,1.1,3.548,3.548,0,0,0-1.017,1.606c-.17.676.254,1.014.848.761l2.289-.845,2.289-.845c.594-.254.763-.761.424-1.183l-.424-.254a2.634,2.634,0,0,0-1.441-.423" transform="translate(-36.482 -3.621)" fill="#0a4ce0"/>
        <path id="パス_7978" data-name="パス 7978" d="M259.041,33.1c.678,0,1.187.338,1.187.676a1.014,1.014,0,0,0,.594.93h1.611l.509-.169.509-.423a1.477,1.477,0,0,0-.085-1.775l-1.017-.592-1.441-.507-1.441-.676a3.216,3.216,0,0,1-1.1-1.183,4.047,4.047,0,0,1-.424-2.029,3.794,3.794,0,0,1,.424-1.86,4.061,4.061,0,0,1,1.1-1.268,4.331,4.331,0,0,1,1.441-.676l1.357-.254h.933l1.1.254,1.1.507.339.169a2.7,2.7,0,0,1,.594,1.691v.761a1.185,1.185,0,0,1-1.187,1.183h-.339c-.678,0-1.187-.338-1.187-.761a1.015,1.015,0,0,0-.763-.93h-.339a1.7,1.7,0,0,0-1.187.338,1.028,1.028,0,0,0,.254,1.606l1.1.507,1.357.592,1.357.845a3.714,3.714,0,0,1,1.441,3.127,4.8,4.8,0,0,1-.17,1.268,4.306,4.306,0,0,1-.678,1.437,4.067,4.067,0,0,1-1.441,1.183,5.186,5.186,0,0,1-2.374.507,9.609,9.609,0,0,1-2.628-.338,3.4,3.4,0,0,1-1.017-.423,2.786,2.786,0,0,1-.933-1.944v-.761a1.185,1.185,0,0,1,1.187-1.183Z" transform="translate(-39.186 -3.606)" fill="#0a4ce0"/>
        <path id="パス_7979" data-name="パス 7979" d="M270.885,33.667c0-.676.339-1.183.848-1.183s.848-.507.848-1.183V14.057c0-.676-.339-1.183-.848-1.183s-.848-.507-.848-1.183v-.507A1.185,1.185,0,0,1,272.072,10H279.7l1.526.254a9.6,9.6,0,0,1,2.8,1.183,7.367,7.367,0,0,1,2.2,2.113,5.566,5.566,0,0,1,.848,3.127,7,7,0,0,1-1.95,5.241c-1.272,1.268-4.494,1.775-4.494,1.775l-2.374.169H276.65a1.185,1.185,0,0,0-1.187,1.183v6.086a1.185,1.185,0,0,0,1.187,1.183h1.781a1.185,1.185,0,0,1,1.187,1.183v.507a1.185,1.185,0,0,1-1.187,1.183h-6.444a1.185,1.185,0,0,1-1.187-1.183Zm4.663-13.778a1.185,1.185,0,0,0,1.187,1.183h3.137a5.526,5.526,0,0,0,1.441-.338,4.921,4.921,0,0,0,1.7-1.014,3.548,3.548,0,0,0,.848-1.352,4.553,4.553,0,0,0,.254-1.437,2.952,2.952,0,0,0-.424-1.521,4.569,4.569,0,0,0-1.1-1.268,5.433,5.433,0,0,0-1.7-.845l-.933-.254h-3.222a1.185,1.185,0,0,0-1.187,1.183Z" transform="translate(-41.194 -1.547)" fill="#0a4ce0"/>
        <path id="パス_7980" data-name="パス 7980" d="M289.2,30.685a6.914,6.914,0,0,1,.594-2.789,7.014,7.014,0,0,1,1.526-2.282,7.378,7.378,0,0,1,2.289-1.521,7.226,7.226,0,0,1,2.883-.592,7.474,7.474,0,0,1,5.257,2.113,7.2,7.2,0,0,1,1.526,7.861,7.353,7.353,0,0,1-1.526,2.282,7.209,7.209,0,0,1-2.289,1.521,7.4,7.4,0,0,1-2.883.592,7.163,7.163,0,0,1-6.7-4.4,6.829,6.829,0,0,1-.594-2.789m3.052,0a4.182,4.182,0,0,0,2.544,3.8,4.252,4.252,0,0,0,3.307,0,4.41,4.41,0,0,0,1.357-.93,4.056,4.056,0,0,0,.933-1.352,4.271,4.271,0,0,0-5.6-5.579,4.07,4.07,0,0,0-1.357.93,4.395,4.395,0,0,0-.933,1.352,4.131,4.131,0,0,0-.339,1.606" transform="translate(-43.993 -3.636)" fill="#0a4ce0"/>
        <path id="パス_7981" data-name="パス 7981" d="M309,35.77a1.185,1.185,0,0,1,1.187-1.183h.339a1.185,1.185,0,0,0,1.187-1.183V27.909a1.185,1.185,0,0,0-1.187-1.183h0a1.185,1.185,0,0,1-1.187-1.183v-.507a1.185,1.185,0,0,1,1.187-1.183h2.713c.678,0,1.187.085,1.187.169a9.646,9.646,0,0,0,.085,1.268v.93c.085.592.339.676.678.085l.509-.592a8.133,8.133,0,0,1,1.441-1.183l1.441-.761.509-.169c.424-.085.763.423.678,1.1v.592a1.608,1.608,0,0,1-1.272,1.352,5.264,5.264,0,0,0-2.374,1.1,4.054,4.054,0,0,0-1.1,1.944,14.913,14.913,0,0,0-.254,2.367V33.4a1.185,1.185,0,0,0,1.187,1.183,1.185,1.185,0,0,1,1.187,1.183v.507a1.185,1.185,0,0,1-1.187,1.183h-5.681a1.185,1.185,0,0,1-1.187-1.183Z" transform="translate(-47.005 -3.65)" fill="#0a4ce0"/>
        <path id="パス_7982" data-name="パス 7982" d="M327.537,14.583a1.185,1.185,0,0,1,1.187-1.183h.594a1.185,1.185,0,0,1,1.187,1.183v6.508a1.185,1.185,0,0,0,1.187,1.183h1.187a1.185,1.185,0,0,1,1.187,1.183v.592a1.185,1.185,0,0,1-1.187,1.183h-1.187a1.185,1.185,0,0,0-1.187,1.183v5.41a1.185,1.185,0,0,0,1.187,1.183h.339a1.185,1.185,0,0,1,1.187,1.183V34.7a1.185,1.185,0,0,1-1.187,1.183h-3.392a1.185,1.185,0,0,1-1.187-1.183V26.417a1.185,1.185,0,0,0-1.187-1.183h-.678A1.185,1.185,0,0,1,324.4,24.05v-.592a1.185,1.185,0,0,1,1.187-1.183h.678a1.185,1.185,0,0,0,1.187-1.183Z" transform="translate(-49.348 -2.074)" fill="#0a4ce0"/>
        <path id="パス_7983" data-name="パス 7983" d="M23.272,14.219a.679.679,0,0,0-1.272,0v1.014h1.272Z" transform="translate(-3.347 -2.132)" fill="#0a4ce0"/>
        <path id="パス_7984" data-name="パス 7984" d="M27.416,32.45,25.3,16.9a.847.847,0,0,0-.085-1.691h-.17V9.966h0V9.374A3.977,3.977,0,0,0,21.481,5.4V4.556a.425.425,0,0,0-.763,0V5.4a3.977,3.977,0,0,0-3.561,3.973v.592h0v5.241h-.17A.847.847,0,0,0,16.9,16.9L14.868,32.45H13.257L11.9,37.014a4.489,4.489,0,0,0,1.865-1.691,4.416,4.416,0,0,0,7.546,0,4.412,4.412,0,0,0,3.731,2.113H26.06a4.412,4.412,0,0,0,2.2-1.268l.594-.676a4.486,4.486,0,0,0,1.272,1.352l-1.272-4.226ZM24.364,15.122H17.92v-4.4h6.444ZM23.77,32.45l-7.461-5.832.509-3.635,9.666,7.523.254,1.86ZM24.7,17.066l.339,2.367L21.99,17.066Zm-6.613,0,7.377,5.748.594,4.48-8.9-7.016.424-3.3ZM15.97,29.407l3.985,3.043H15.546Z" transform="translate(-1.81 -0.668)" fill="#0a4ce0"/>
        <path id="パス_7985" data-name="パス 7985" d="M45.185,43.5a.493.493,0,0,0-.085.338c0,.254.339,0,.085-.338" transform="translate(-6.861 -6.731)" fill="#0a4ce0"/>
        <path id="パス_7986" data-name="パス 7986" d="M38.391,43.458a4.924,4.924,0,0,1-3.731-1.691,4.928,4.928,0,0,1-7.546,0,4.928,4.928,0,0,1-7.546,0,4.928,4.928,0,0,1-7.546,0,4.927,4.927,0,0,1-7.546,0A4.924,4.924,0,0,1,.745,43.458a.507.507,0,0,1,0-.93,3.988,3.988,0,0,0,3.392-1.86.51.51,0,0,1,.763,0,3.992,3.992,0,0,0,6.7,0,.51.51,0,0,1,.763,0,3.992,3.992,0,0,0,6.7,0,.51.51,0,0,1,.763,0,3.992,3.992,0,0,0,6.7,0,.51.51,0,0,1,.763,0,3.992,3.992,0,0,0,6.7,0,.51.51,0,0,1,.763,0,3.988,3.988,0,0,0,3.392,1.86.508.508,0,1,1,0,.93" transform="translate(-0.067 -6.267)" fill="#0a4ce0"/>
      </g>
    </g>
  </g>
</svg>
