<svg xmlns="http://www.w3.org/2000/svg" xmlns:xlink="http://www.w3.org/1999/xlink" width="227" height="30.438" viewBox="0 0 227 30.438">
  <defs>
    <clipPath id="clip-path">
      <rect id="長方形_12638" data-name="長方形 12638" width="227" height="30.438" fill="none"/>
    </clipPath>
  </defs>
  <g id="rionet_salesport_logo_wh" transform="translate(113.5 15.219)">
    <g id="グループ_3778" data-name="グループ 3778" transform="translate(-113.5 -15.219)">
      <line id="線_364" data-name="線 364" x1="9.772" y2="5.678" transform="translate(23.572 1.321)" fill="#fff"/>
      <g id="グループ_3777" data-name="グループ 3777" clip-path="url(#clip-path)">
        <path id="パス_8029" data-name="パス 8029" d="M35.439,7.879a.408.408,0,0,1-.2-.792l9.772-5.612a.414.414,0,0,1,.4.726L35.637,7.813h-.2" transform="translate(-11.867 -0.484)" fill="#fff"/>
        <line id="線_365" data-name="線 365" x2="9.772" y2="5.678" transform="translate(23.572 12.149)" fill="#fff"/>
        <path id="パス_8030" data-name="パス 8030" d="M45.259,24.279h-.2L35.289,18.6a.414.414,0,1,1,.4-.726l9.772,5.612a.408.408,0,1,1-.2.792" transform="translate(-11.916 -6.055)" fill="#fff"/>
        <path id="パス_8031" data-name="パス 8031" d="M64.4,28.054c0-.528.264-.924.66-.924s.66-.4.66-.924V12.669c0-.528-.264-.924-.66-.924s-.66-.4-.66-.924v-.4a.924.924,0,0,1,.924-.924h5.942l1.188.2A7.527,7.527,0,0,1,74.7,10.755a5.744,5.744,0,0,1,1.717,1.651,4.358,4.358,0,0,1,.66,2.443,5.81,5.81,0,0,1-1.056,3.565,5.942,5.942,0,0,1-2.245,1.519.858.858,0,0,0-.462,1.188L75.691,26.2a1.585,1.585,0,0,0,1.321.858H77.8a.924.924,0,0,1,.924.924v.4a.924.924,0,0,1-.924.924H75.559a1.585,1.585,0,0,1-1.321-.858l-3.367-7.131a1.387,1.387,0,0,0-.99-.858H68.626c-.33,0-.594.4-.594.924v4.754a.924.924,0,0,0,.924.924h1.387a.924.924,0,0,1,.924.924v.4a.924.924,0,0,1-.924.924H65.324a.924.924,0,0,1-.924-.924Zm3.631-10.762a.924.924,0,0,0,.924.924H71.4a4.292,4.292,0,0,0,1.122-.264,3.83,3.83,0,0,0,1.321-.792A2.707,2.707,0,0,0,74.5,16.1a3.565,3.565,0,0,0,.2-1.122,2.311,2.311,0,0,0-.33-1.188,3.5,3.5,0,0,0-.858-.99,4.226,4.226,0,0,0-1.321-.66l-.726-.33H68.956a.924.924,0,0,0-.924.924Z" transform="translate(-21.879 -3.227)" fill="#fff"/>
        <path id="パス_8032" data-name="パス 8032" d="M88.8,29.922A.924.924,0,0,1,89.724,29h.132a.924.924,0,0,0,.924-.924V23.716a.924.924,0,0,0-.924-.924h-.132a.924.924,0,0,1-.924-.924v-.4a.924.924,0,0,1,.924-.924h2.509a.924.924,0,0,1,.924.924v6.537a.924.924,0,0,0,.924.924h.066a.924.924,0,0,1,.924.924v.4a.924.924,0,0,1-.924.924H89.724a.924.924,0,0,1-.924-.924Zm1.717-13.469a1.387,1.387,0,0,1,.462-1.056,1.453,1.453,0,0,1,.99-.4,1.519,1.519,0,0,1,1.453,1.519,1.387,1.387,0,0,1-.462,1.056,1.436,1.436,0,0,1-1.981,0,1.387,1.387,0,0,1-.462-1.056" transform="translate(-30.168 -5.096)" fill="#fff"/>
        <path id="パス_8033" data-name="パス 8033" d="M100.9,28.612a5.348,5.348,0,0,1,.462-2.179,5.48,5.48,0,0,1,1.188-1.783,5.744,5.744,0,0,1,1.783-1.188A5.678,5.678,0,0,1,106.578,23a5.81,5.81,0,0,1,4.028,1.651,5.638,5.638,0,0,1,1.188,6.14,5.744,5.744,0,0,1-1.188,1.783,5.612,5.612,0,0,1-1.783,1.188,5.744,5.744,0,0,1-2.245.462,5.678,5.678,0,0,1-5.216-3.434,5.348,5.348,0,0,1-.462-2.178m2.377,0a3.269,3.269,0,0,0,1.981,2.971,3.3,3.3,0,0,0,2.575,0,3.433,3.433,0,0,0,1.056-.726,3.169,3.169,0,0,0,.726-1.056,3.3,3.3,0,0,0,0-2.575,3.367,3.367,0,0,0-1.783-1.783,3.3,3.3,0,0,0-2.575,0,3.169,3.169,0,0,0-1.056.726,3.433,3.433,0,0,0-.726,1.056,3.235,3.235,0,0,0-.264,1.255" transform="translate(-34.279 -7.814)" fill="#fff"/>
        <path id="パス_8034" data-name="パス 8034" d="M127.655,32.636a.924.924,0,0,1,.924-.924h.33a.924.924,0,0,0,.924-.924V28.212a9.839,9.839,0,0,0-.2-1.849l-.33-.4a2.179,2.179,0,0,0-1.585-.594,3.9,3.9,0,0,0-1.387.264,3.83,3.83,0,0,0-1.188.66,3.565,3.565,0,0,0-.792,1.056l-.2.462a17.4,17.4,0,0,0-.132,1.849v1.056a.924.924,0,0,0,.924.924.924.924,0,0,1,.924.924v.4a.924.924,0,0,1-.924.924h-4.424a.924.924,0,0,1-.924-.924v-.4a.924.924,0,0,1,.924-.924h.264a.924.924,0,0,0,.924-.924V26.429a.924.924,0,0,0-.924-.924h0a.924.924,0,0,1-.924-.924v-.4a.924.924,0,0,1,.924-.924H122.9c.528,0,.924.066.924.132a7.558,7.558,0,0,0,.066.99v.726c.066.462.264.528.528.066a4.754,4.754,0,0,1,1.321-1.387A5.084,5.084,0,0,1,128.514,23a3.764,3.764,0,0,1,2.641.858,2.971,2.971,0,0,1,.792,1.387,10.234,10.234,0,0,1,.2,1.849v3.631a.924.924,0,0,0,.858.924.924.924,0,0,1,.858.924v.4a.924.924,0,0,1-.924.924h-4.424a.924.924,0,0,1-.924-.924Z" transform="translate(-40.632 -7.81)" fill="#fff"/>
        <path id="パス_8035" data-name="パス 8035" d="M152.541,26.8a.99.99,0,0,1-.594,1.188l-2.971,1.122L146,30.228a.594.594,0,0,0-.264.99l.462.264a3.433,3.433,0,0,0,1.585.33,2.575,2.575,0,0,0,1.387-.4,1.056,1.056,0,0,1,1.387.2l.264.264a.924.924,0,0,1-.132,1.321,4.093,4.093,0,0,1-.924.528,4.886,4.886,0,0,1-1.981.4,5.678,5.678,0,0,1-4.028-1.651,5.744,5.744,0,0,1-1.188-1.783,5.638,5.638,0,0,1,1.188-6.14,5.744,5.744,0,0,1,1.783-1.188,5.612,5.612,0,0,1,2.245-.462,4.16,4.16,0,0,1,1.717.33,4.82,4.82,0,0,1,1.453.99,6.471,6.471,0,0,1,1.122,1.519,6.074,6.074,0,0,1,.462.99m-4.688-1.519a3.3,3.3,0,0,0-2.377.858,2.773,2.773,0,0,0-.792,1.255c-.132.528.2.792.66.594l1.783-.66,1.783-.66c.462-.2.594-.594.33-.924l-.33-.2a2.113,2.113,0,0,0-1.122-.33" transform="translate(-48.284 -7.779)" fill="#fff"/>
        <path id="パス_8036" data-name="パス 8036" d="M161.777,13.924A.924.924,0,0,1,162.7,13h.462a.924.924,0,0,1,.924.924v5.018a.924.924,0,0,0,.924.924h.924a.924.924,0,0,1,.924.924v.462a.924.924,0,0,1-.924.924h-.858a.924.924,0,0,0-.924.924v4.226a.924.924,0,0,0,.924.924h.264a.924.924,0,0,1,.924.924v.4a.924.924,0,0,1-.924.924H162.7a.924.924,0,0,1-.924-.924V23.1a.924.924,0,0,0-.924-.924h-.528a.924.924,0,0,1-.924-.924v-.462a.924.924,0,0,1,.924-.924h.528a.924.924,0,0,0,.924-.924Z" transform="translate(-54.153 -4.417)" fill="#fff"/>
        <path id="パス_8037" data-name="パス 8037" d="M185.794,27.389a3.1,3.1,0,0,1-.594-1.651V24.286a.924.924,0,0,1,.924-.924h.4a.924.924,0,0,1,.924.924v.66a1.915,1.915,0,0,0,.792,1.453l.99.462a6.074,6.074,0,0,0,2.311.4,4.754,4.754,0,0,0,1.453-.2,3.763,3.763,0,0,0,1.188-.594,2.971,2.971,0,0,0,.858-1.056,3.236,3.236,0,0,0,.33-1.453,3.367,3.367,0,0,0-.66-2.245,4.622,4.622,0,0,0-1.717-1.255l-2.311-.792a10.564,10.564,0,0,1-2.245-.858,4.886,4.886,0,0,1-1.717-1.519,4.754,4.754,0,0,1-.726-2.707,5.745,5.745,0,0,1,.264-1.849,4.688,4.688,0,0,1,.924-1.717A4.82,4.82,0,0,1,188.9,9.76a6.47,6.47,0,0,1,2.641-.462h1.122l1.255.2,1.321.528.66.33a2.113,2.113,0,0,1,.726,1.519V12.8a.924.924,0,0,1-.924.924h-.4a.858.858,0,0,1-.924-.858,1.254,1.254,0,0,0-.792-1.122l-.462-.132-1.585-.2a3.037,3.037,0,0,0-2.443.924,3.3,3.3,0,0,0-.792,2.245,2.245,2.245,0,0,0,.4,1.387,3.235,3.235,0,0,0,1.056.858l1.519.594,1.717.528,1.717.726a5.414,5.414,0,0,1,1.519,1.056,5.018,5.018,0,0,1,1.056,1.651,6.47,6.47,0,0,1,.4,2.443,5.48,5.48,0,0,1-.462,2.311,5.282,5.282,0,0,1-1.254,1.717,5.612,5.612,0,0,1-1.915,1.122,6.735,6.735,0,0,1-2.245.4,9.112,9.112,0,0,1-2.113-.264,9.64,9.64,0,0,1-1.849-.66,8.122,8.122,0,0,1-1.519-.924l-.462-.33" transform="translate(-62.918 -3.157)" fill="#fff"/>
        <path id="パス_8038" data-name="パス 8038" d="M205.832,28.646a5.348,5.348,0,0,1,.462-2.113,5.678,5.678,0,0,1,1.188-1.783,5.81,5.81,0,0,1,1.849-1.188,5.612,5.612,0,0,1,2.245-.462,4.292,4.292,0,0,1,1.387.2l1.122.528.792.528.2.2c.066.066.132,0,.132-.264v-.462c0-.264.462-.462.924-.462h.066a.924.924,0,0,1,.924.924v6.537a.924.924,0,0,0,.924.924h.264a.924.924,0,0,1,.924.924v.4a.924.924,0,0,1-.924.924h-2.377c-.528,0-.924-.132-.924-.264v-.594c0-.132-.066-.2-.132-.132l-.2.132-.726.462-1.122.4a5.414,5.414,0,0,1-1.453.2,5.744,5.744,0,0,1-2.245-.462,5.612,5.612,0,0,1-1.783-1.188,5.744,5.744,0,0,1-1.189-1.783,5.282,5.282,0,0,1-.462-2.113m2.377,0a3.334,3.334,0,1,0,6.669,0,3.169,3.169,0,0,0-.924-2.311,3.631,3.631,0,0,0-4.82,0,3.169,3.169,0,0,0-.924,2.311" transform="translate(-69.883 -7.847)" fill="#fff"/>
        <path id="パス_8039" data-name="パス 8039" d="M229,27.306a.924.924,0,0,1,.924-.924h.264a.924.924,0,0,0,.924-.924V10.469a.924.924,0,0,0-.924-.924h0a.924.924,0,0,1-.924-.924v-.4a.924.924,0,0,1,.924-.924h2.377a.924.924,0,0,1,.924.924V25.391a.924.924,0,0,0,.924.924.924.924,0,0,1,.924.924v.4a.924.924,0,0,1-.924.924H229.99a.924.924,0,0,1-.924-.924Z" transform="translate(-77.799 -2.48)" fill="#fff"/>
        <path id="パス_8040" data-name="パス 8040" d="M251.441,26.8a.99.99,0,0,1-.594,1.188l-2.971,1.122L244.9,30.228a.594.594,0,0,0-.264.99l.462.264a3.434,3.434,0,0,0,1.585.33,2.575,2.575,0,0,0,1.387-.4,1.056,1.056,0,0,1,1.387.2l.264.264a.924.924,0,0,1-.132,1.321,4.093,4.093,0,0,1-.924.528,4.886,4.886,0,0,1-1.981.4,5.678,5.678,0,0,1-4.028-1.651,5.745,5.745,0,0,1-1.188-1.783,5.638,5.638,0,0,1,1.188-6.14,5.744,5.744,0,0,1,1.783-1.188,5.612,5.612,0,0,1,2.245-.462,4.16,4.16,0,0,1,1.717.33,4.82,4.82,0,0,1,1.453.99,6.537,6.537,0,0,1,1.122,1.519,6.007,6.007,0,0,1,.462.99m-4.688-1.519a3.3,3.3,0,0,0-2.377.858,2.773,2.773,0,0,0-.792,1.255c-.132.528.2.792.66.594l1.783-.66,1.783-.66c.462-.2.594-.594.33-.924l-.33-.2a2.113,2.113,0,0,0-1.122-.33" transform="translate(-81.884 -7.779)" fill="#fff"/>
        <path id="パス_8041" data-name="パス 8041" d="M260.022,30.459c.528,0,.924.264.924.528a.792.792,0,0,0,.462.726h1.254l.4-.132.4-.33a1.157,1.157,0,0,0-.066-1.387L262.6,29.4l-1.122-.4-1.122-.528a2.575,2.575,0,0,1-.858-.924,3.17,3.17,0,0,1-.33-1.585,2.971,2.971,0,0,1,.33-1.453,3.169,3.169,0,0,1,.858-.99A3.367,3.367,0,0,1,261.475,23l1.056-.2h.726l.858.2.858.4.264.132a2.113,2.113,0,0,1,.462,1.321v.594a.924.924,0,0,1-.924.924h-.264c-.528,0-.924-.264-.924-.594a.792.792,0,0,0-.594-.726h-.264a1.321,1.321,0,0,0-.924.264.792.792,0,0,0,.2,1.255l.858.4,1.056.462,1.056.66a2.905,2.905,0,0,1,1.122,2.443,3.763,3.763,0,0,1-.132.99,3.367,3.367,0,0,1-.528,1.122,3.169,3.169,0,0,1-1.122.924,4.028,4.028,0,0,1-1.849.4,7.461,7.461,0,0,1-2.047-.264,2.642,2.642,0,0,1-.792-.33,2.179,2.179,0,0,1-.726-1.519v-.594a.924.924,0,0,1,.924-.924Z" transform="translate(-87.957 -7.746)" fill="#fff"/>
        <path id="パス_8042" data-name="パス 8042" d="M272.1,28.054c0-.528.264-.924.66-.924s.66-.4.66-.924V12.669c0-.528-.264-.924-.66-.924s-.66-.4-.66-.924v-.4a.924.924,0,0,1,.924-.924h5.942l1.188.2a7.461,7.461,0,0,1,2.179.924,5.745,5.745,0,0,1,1.717,1.651,4.358,4.358,0,0,1,.66,2.443,5.48,5.48,0,0,1-1.519,4.094c-.99.99-3.5,1.387-3.5,1.387l-1.849.132h-1.189a.924.924,0,0,0-.924.924v4.754a.924.924,0,0,0,.924.924h1.387a.924.924,0,0,1,.924.924v.4a.924.924,0,0,1-.924.924h-5.018a.924.924,0,0,1-.924-.924Zm3.631-10.762a.924.924,0,0,0,.924.924H279.1a4.292,4.292,0,0,0,1.122-.264,3.83,3.83,0,0,0,1.321-.792,2.708,2.708,0,0,0,.66-1.056,3.567,3.567,0,0,0,.2-1.122,2.311,2.311,0,0,0-.33-1.188,3.5,3.5,0,0,0-.858-.99,4.226,4.226,0,0,0-1.321-.66l-.726-.2h-2.509a.924.924,0,0,0-.924.924Z" transform="translate(-92.441 -3.227)" fill="#fff"/>
        <path id="パス_8043" data-name="パス 8043" d="M290.5,28.612a5.415,5.415,0,0,1,.462-2.179,5.48,5.48,0,0,1,1.189-1.783,5.744,5.744,0,0,1,1.783-1.188A5.678,5.678,0,0,1,296.178,23a5.81,5.81,0,0,1,4.028,1.651,5.481,5.481,0,0,1,1.188,1.783,5.546,5.546,0,0,1,0,4.358,5.678,5.678,0,0,1-1.188,1.783,5.612,5.612,0,0,1-1.783,1.188,5.744,5.744,0,0,1-2.245.462,5.678,5.678,0,0,1-4.028-1.651,5.745,5.745,0,0,1-1.188-1.783,5.348,5.348,0,0,1-.462-2.179m2.377,0a3.268,3.268,0,0,0,1.981,2.971,3.3,3.3,0,0,0,2.575,0,3.433,3.433,0,0,0,1.056-.726,3.17,3.17,0,0,0,.726-1.056,3.3,3.3,0,0,0,0-2.575,3.367,3.367,0,0,0-1.783-1.783,3.3,3.3,0,0,0-2.575,0,3.169,3.169,0,0,0-1.056.726,3.433,3.433,0,0,0-.726,1.056,3.235,3.235,0,0,0-.264,1.255" transform="translate(-98.692 -7.814)" fill="#fff"/>
        <path id="パス_8044" data-name="パス 8044" d="M310.3,32.67a.924.924,0,0,1,.924-.924h.264a.924.924,0,0,0,.924-.924V26.464a.924.924,0,0,0-.924-.924h0a.924.924,0,0,1-.924-.924v-.4a.924.924,0,0,1,.924-.924H313.6c.528,0,.924.066.924.132a7.558,7.558,0,0,0,.066.99v.726c.066.462.264.528.528.066l.4-.462a6.34,6.34,0,0,1,1.122-.924l1.122-.594.4-.132c.33-.066.594.33.528.858v.462a1.254,1.254,0,0,1-.99,1.056,4.094,4.094,0,0,0-1.849.858,3.169,3.169,0,0,0-.858,1.519,11.814,11.814,0,0,0-.2,1.849v1.056a.924.924,0,0,0,.924.924.924.924,0,0,1,.924.924V33a.924.924,0,0,1-.924.924H311.29a.924.924,0,0,1-.924-.924Z" transform="translate(-105.419 -7.844)" fill="#fff"/>
        <path id="パス_8045" data-name="パス 8045" d="M328.143,13.924a.924.924,0,0,1,.924-.924h.462a.924.924,0,0,1,.924.924v5.018a.924.924,0,0,0,.924.924h.924a.924.924,0,0,1,.924.924v.462a.924.924,0,0,1-.924.924h-.924a.924.924,0,0,0-.924.924v4.226a.924.924,0,0,0,.924.924h.264a.924.924,0,0,1,.924.924v.4a.924.924,0,0,1-.924.924H329a.924.924,0,0,1-.924-.924V23.1a.924.924,0,0,0-.924-.924h-.528a.924.924,0,0,1-.924-.924v-.462a.924.924,0,0,1,.924-.924h.528a.924.924,0,0,0,.924-.924Z" transform="translate(-110.651 -4.417)" fill="#fff"/>
        <path id="パス_8046" data-name="パス 8046" d="M24.29,13.623a.528.528,0,0,0-.99,0v.792h.99Z" transform="translate(-7.916 -4.511)" fill="#fff"/>
        <path id="パス_8047" data-name="パス 8047" d="M25.217,25.793,23.632,13.71a.661.661,0,0,0-.066-1.321h-.132V8.23h0V7.768a3.1,3.1,0,0,0-2.773-3.1V4a.33.33,0,0,0-.594,0v.66a3.1,3.1,0,0,0-2.773,3.1V8.23h0v4.094h-.132a.661.661,0,0,0-.066,1.321L15.445,25.793H14.256L13.2,29.358a3.5,3.5,0,0,0,1.453-1.321,3.433,3.433,0,0,0,5.876,0,3.433,3.433,0,0,0,2.905,1.651h.792a3.433,3.433,0,0,0,1.717-.99l.462-.528a3.5,3.5,0,0,0,.99,1.056l-.99-3.3ZM22.84,12.258H17.822V8.824H22.84Zm-.462,13.535-5.81-4.556.4-2.839,7.527,5.876.2,1.453ZM23.1,13.776l.264,1.849-2.377-1.849Zm-5.15,0,5.744,4.49.462,3.5-6.933-5.414.33-2.575ZM16.3,23.416l3.1,2.377H15.973Z" transform="translate(-4.484 -1.297)" fill="#fff"/>
        <path id="パス_8048" data-name="パス 8048" d="M46.466,43a.386.386,0,0,0-.066.264c0,.2.264,0,.066-.264" transform="translate(-15.764 -14.608)" fill="#fff"/>
        <path id="パス_8049" data-name="パス 8049" d="M31.1,42.344a3.83,3.83,0,0,1-2.971-1.321,3.83,3.83,0,0,1-5.876,0,3.83,3.83,0,0,1-5.876,0,3.83,3.83,0,0,1-5.876,0,3.83,3.83,0,0,1-5.876,0A3.83,3.83,0,0,1,1.715,42.41a.4.4,0,1,1,0-.726,3.1,3.1,0,0,0,2.641-1.453.4.4,0,0,1,.594,0,3.1,3.1,0,0,0,5.216,0,.4.4,0,0,1,.594,0,3.1,3.1,0,0,0,5.216,0,.4.4,0,0,1,.594,0,3.1,3.1,0,0,0,5.216,0,.4.4,0,0,1,.594,0,3.1,3.1,0,0,0,5.216,0,.4.4,0,0,1,.594,0,3.1,3.1,0,0,0,2.641,1.453.4.4,0,1,1,0,.726" transform="translate(-0.394 -13.622)" fill="#fff"/>
      </g>
    </g>
  </g>
</svg>
