<svg xmlns="http://www.w3.org/2000/svg" xmlns:xlink="http://www.w3.org/1999/xlink" width="284.888" height="38.239" viewBox="0 0 284.888 38.239">
  <defs>
    <clipPath id="clip-path">
      <rect id="Rectangle_12584" data-name="Rectangle 12584" width="284.888" height="38.239" fill="none"/>
    </clipPath>
  </defs>
  <g id="アートワーク_2" data-name="アートワーク 2" transform="translate(142.444 19.12)">
    <g id="Group_3697" data-name="Group 3697" transform="translate(-142.444 -19.12)" clip-path="url(#clip-path)">
      <path id="Path_7298" data-name="Path 7298" d="M43.02,22.648A20.01,20.01,0,1,1,23.01,2.7,19.979,19.979,0,0,1,43.02,22.648" transform="translate(-0.456 -0.418)" fill="#0a4ce0"/>
      <path id="Path_7299" data-name="Path 7299" d="M64.4,32.955c0-.592.339-1.014.678-1.014s.678-.423.678-1.014V15.966c0-.592-.339-1.014-.678-1.014s-.678-.423-.678-1.014v-.423A1.016,1.016,0,0,1,65.417,12.5h6.613l1.357.254a8.323,8.323,0,0,1,2.459,1.014,6.349,6.349,0,0,1,1.865,1.86,4.807,4.807,0,0,1,.763,2.7A6.41,6.41,0,0,1,77.288,22.3,6.614,6.614,0,0,1,74.829,24a.929.929,0,0,0-.509,1.268l2.628,5.663a1.781,1.781,0,0,0,1.441.93h.933a1.016,1.016,0,0,1,1.017,1.014v.423a1.015,1.015,0,0,1-1.017,1.183H76.779a1.781,1.781,0,0,1-1.441-.93L71.607,25.6a1.525,1.525,0,0,0-1.1-.93H69.148c-.339,0-.678.423-.678,1.014v5.241a1.016,1.016,0,0,0,1.017,1.014h1.526a1.016,1.016,0,0,1,1.017,1.014v.423a1.016,1.016,0,0,1-1.017,1.014h-5.6A1.016,1.016,0,0,1,64.4,33.378Zm4.07-11.918a1.016,1.016,0,0,0,1.017,1.014H72.2a4.761,4.761,0,0,0,1.272-.254,4.241,4.241,0,0,0,1.441-.93,3.042,3.042,0,0,0,.763-1.183,3.962,3.962,0,0,0,.254-1.268,2.614,2.614,0,0,0-.339-1.352,3.893,3.893,0,0,0-1.017-1.1,4.753,4.753,0,0,0-1.441-.761l-.848-.169h-2.8A1.016,1.016,0,0,0,68.47,16.05Z" transform="translate(-9.797 -1.934)" fill="#0a4ce0"/>
      <path id="Path_7300" data-name="Path 7300" d="M85.4,33.667a1.016,1.016,0,0,1,1.017-1.014h.17A1.016,1.016,0,0,0,87.6,31.638V26.9a1.016,1.016,0,0,0-1.017-1.014h-.17A1.016,1.016,0,0,1,85.4,24.876v-.423a1.016,1.016,0,0,1,1.017-1.014h2.713a1.016,1.016,0,0,1,1.017,1.014v7.269a1.016,1.016,0,0,0,1.017,1.014h.085a1.016,1.016,0,0,1,1.017,1.014v.423a1.016,1.016,0,0,1-1.017,1.014H86.5a1.016,1.016,0,0,1-1.017-1.014Zm1.95-14.877a1.519,1.519,0,0,1,.509-1.183,1.613,1.613,0,0,1,1.1-.507,1.693,1.693,0,0,1,1.611,1.691,1.519,1.519,0,0,1-.509,1.183,1.649,1.649,0,0,1-2.2,0,1.519,1.519,0,0,1-.509-1.183" transform="translate(-12.991 -2.646)" fill="#0a4ce0"/>
      <path id="Path_7301" data-name="Path 7301" d="M95.9,30.37A5.9,5.9,0,0,1,96.409,28a6.085,6.085,0,0,1,1.357-1.944A6.445,6.445,0,0,1,99.8,24.707a6.291,6.291,0,0,1,2.459-.507,6.455,6.455,0,0,1,4.494,1.775,6.026,6.026,0,0,1,1.357,6.762,6.339,6.339,0,0,1-1.357,1.944,6.191,6.191,0,0,1-2.035,1.352,6.376,6.376,0,0,1-2.459.507,6.275,6.275,0,0,1-5.85-3.8A5.9,5.9,0,0,1,95.9,30.37m2.628,0a3.514,3.514,0,0,0,2.2,3.381,3.656,3.656,0,0,0,2.8,0,3.817,3.817,0,0,0,1.187-.761,3.464,3.464,0,0,0,.763-1.183,3.624,3.624,0,0,0,0-2.789,3.725,3.725,0,0,0-1.95-1.944,3.656,3.656,0,0,0-2.8,0,3.478,3.478,0,0,0-1.187.761,3.8,3.8,0,0,0-.763,1.183,3.54,3.54,0,0,0-.254,1.437" transform="translate(-14.588 -3.745)" fill="#0a4ce0"/>
      <path id="Path_7302" data-name="Path 7302" d="M121.088,34.763a1.016,1.016,0,0,1,1.017-1.014h.339a1.016,1.016,0,0,0,1.017-1.014V29.945a10.788,10.788,0,0,0-.254-2.029l-.339-.423a2.378,2.378,0,0,0-1.781-.676,4.336,4.336,0,0,0-1.526.254,4.242,4.242,0,0,0-1.272.761,3.975,3.975,0,0,0-.933,1.183l-.254.507a16.924,16.924,0,0,0-.085,2.029v1.183a1.016,1.016,0,0,0,1.017,1.014,1.016,1.016,0,0,1,1.017,1.014v.423a1.016,1.016,0,0,1-1.017,1.014h-4.918a1.016,1.016,0,0,1-1.017-1.014v-.423a1.016,1.016,0,0,1,1.017-1.014h.339a1.016,1.016,0,0,0,1.017-1.014V28a1.016,1.016,0,0,0-1.017-1.014h0a1.016,1.016,0,0,1-1.017-1.014V25.55a1.016,1.016,0,0,1,1.017-1.014h2.289l1.017.169v1.86c.085.507.339.592.594.085a5.333,5.333,0,0,1,1.526-1.521,5.609,5.609,0,0,1,3.137-.93,4.163,4.163,0,0,1,2.968.93,3.3,3.3,0,0,1,.933,1.521,11.377,11.377,0,0,1,.254,2.029V32.65a1.016,1.016,0,0,0,1.017,1.014,1.016,1.016,0,0,1,1.017,1.014V35.1a1.016,1.016,0,0,1-1.017,1.014h-4.918a1.016,1.016,0,0,1-1.017-1.014Z" transform="translate(-17.053 -3.742)" fill="#0a4ce0"/>
      <path id="Path_7303" data-name="Path 7303" d="M143.118,28.4a1.1,1.1,0,0,1-.678,1.352l-3.307,1.183-3.307,1.183a.675.675,0,0,0-.254,1.1l.509.254a3.825,3.825,0,0,0,1.781.423,2.89,2.89,0,0,0,1.526-.423,1.19,1.19,0,0,1,1.526.169l.254.338a1.012,1.012,0,0,1-.085,1.437,4.5,4.5,0,0,1-1.017.592,5.441,5.441,0,0,1-2.2.423,6.474,6.474,0,0,1-5.85-3.8,6.026,6.026,0,0,1,1.357-6.762,6.445,6.445,0,0,1,2.035-1.352A6.291,6.291,0,0,1,137.861,24a4.59,4.59,0,0,1,1.865.423,5.342,5.342,0,0,1,1.611,1.1,7.189,7.189,0,0,1,1.272,1.606,6.753,6.753,0,0,1,.509,1.1m-5.257-1.691a3.653,3.653,0,0,0-2.628.93,3.041,3.041,0,0,0-.848,1.437c-.085.592.17.845.763.676l1.95-.761,1.95-.761c.509-.169.678-.676.339-1.014l-.339-.254a2.3,2.3,0,0,0-1.187-.338" transform="translate(-20.006 -3.714)" fill="#0a4ce0"/>
      <path id="Path_7304" data-name="Path 7304" d="M149.113,16.514a1.016,1.016,0,0,1,1.017-1.014h.509a1.016,1.016,0,0,1,1.017,1.014v5.579a1.016,1.016,0,0,0,1.017,1.014h1.017a1.016,1.016,0,0,1,1.017,1.014v.507a1.016,1.016,0,0,1-1.017,1.014h-1.017a1.016,1.016,0,0,0-1.017,1.014v4.649a1.016,1.016,0,0,0,1.017,1.014h.254a1.016,1.016,0,0,1,1.017,1.014v.423a1.016,1.016,0,0,1-1.017,1.014h-2.883a1.016,1.016,0,0,1-1.017-1.014V26.742a1.016,1.016,0,0,0-1.017-1.014h-.594a1.016,1.016,0,0,1-1.017-1.014v-.507a1.016,1.016,0,0,1,1.017-1.014h.594a1.016,1.016,0,0,0,1.017-1.014Z" transform="translate(-22.27 -2.399)" fill="#0a4ce0"/>
      <path id="Path_7305" data-name="Path 7305" d="M169.478,32.231a3.375,3.375,0,0,1-.678-1.86V28.85a1.016,1.016,0,0,1,1.017-1.014h.424a1.016,1.016,0,0,1,1.017,1.014v.761a2.111,2.111,0,0,0,.848,1.606l1.1.507a6.8,6.8,0,0,0,2.544.423l1.611-.254a4.16,4.16,0,0,0,1.357-.676,3.3,3.3,0,0,0,.933-1.183,3.541,3.541,0,0,0,.339-1.606,3.711,3.711,0,0,0-.763-2.536,5.087,5.087,0,0,0-1.865-1.352l-2.459-.845a11.808,11.808,0,0,1-2.459-.93,5.421,5.421,0,0,1-1.95-1.691,5.228,5.228,0,0,1-.763-3.043,6.4,6.4,0,0,1,.254-2.113A5.151,5.151,0,0,1,171,14.058a5.342,5.342,0,0,1,1.95-1.352,7.142,7.142,0,0,1,2.968-.507h1.187l1.357.254,1.526.592.678.423a2.28,2.28,0,0,1,.848,1.606v1.183A1.016,1.016,0,0,1,180.5,17.27h-.424a1.016,1.016,0,0,1-1.017-.93,1.437,1.437,0,0,0-.848-1.268H177.7l-1.7-.169a3.4,3.4,0,0,0-2.713,1.014,3.627,3.627,0,0,0-.848,2.451,2.446,2.446,0,0,0,.424,1.521,3.558,3.558,0,0,0,1.187,1.014l1.611.676,1.865.592,1.865.761a6.019,6.019,0,0,1,1.611,1.183,5.492,5.492,0,0,1,1.187,1.86,7.08,7.08,0,0,1,.424,2.7,5.985,5.985,0,0,1-.509,2.536,5.834,5.834,0,0,1-1.441,1.944,6.28,6.28,0,0,1-2.12,1.183,7.482,7.482,0,0,1-2.544.423,10.12,10.12,0,0,1-2.289-.254l-2.12-.676-1.7-1.014-.509-.423" transform="translate(-25.678 -1.887)" fill="#0a4ce0"/>
      <path id="Path_7306" data-name="Path 7306" d="M186.685,30.37A5.9,5.9,0,0,1,187.194,28a6.255,6.255,0,0,1,1.357-1.944,6.361,6.361,0,0,1,2.035-1.352,6.206,6.206,0,0,1,2.459-.507,4.762,4.762,0,0,1,1.611.254l1.272.507.848.592.17.169c.085.085.085,0,.085-.254v-.507c0-.254.509-.507,1.017-.507h.085a1.016,1.016,0,0,1,1.017,1.014v7.269a1.016,1.016,0,0,0,1.017,1.014h.339a1.016,1.016,0,0,1,1.017,1.014v.423a1.016,1.016,0,0,1-1.017,1.014h-2.628c-.594,0-1.017-.169-1.017-.338v-.592c0-.169-.085-.254-.085-.169l-.17.169-.763.507-1.272.507-1.611.169a6.376,6.376,0,0,1-2.459-.507,6.191,6.191,0,0,1-2.035-1.352,6.339,6.339,0,0,1-1.357-1.944,5.817,5.817,0,0,1-.509-2.367m2.628,0a3.729,3.729,0,1,0,7.377,0,3.46,3.46,0,0,0-1.017-2.62,3.994,3.994,0,0,0-5.342,0,3.46,3.46,0,0,0-1.017,2.62" transform="translate(-28.386 -3.745)" fill="#0a4ce0"/>
      <path id="Path_7307" data-name="Path 7307" d="M206.7,32.661a1.016,1.016,0,0,1,1.017-1.014h.339a1.016,1.016,0,0,0,1.017-1.014V14.066a1.016,1.016,0,0,0-1.017-1.014h0a1.016,1.016,0,0,1-1.017-1.014v-.423a1.016,1.016,0,0,1,1.017-1.014h2.628a1.016,1.016,0,0,1,1.017,1.014V30.633a1.016,1.016,0,0,0,1.017,1.014,1.016,1.016,0,0,1,1.017,1.014v.423A1.016,1.016,0,0,1,212.72,34.1H207.8a1.016,1.016,0,0,1-1.017-1.014Z" transform="translate(-31.443 -1.64)" fill="#0a4ce0"/>
      <path id="Path_7308" data-name="Path 7308" d="M228.618,28.4a1.1,1.1,0,0,1-.678,1.352l-3.307,1.183-3.307,1.183a.675.675,0,0,0-.254,1.1l.509.254a3.825,3.825,0,0,0,1.781.423,2.889,2.889,0,0,0,1.526-.423,1.19,1.19,0,0,1,1.526.169l.254.338a1.012,1.012,0,0,1-.085,1.437,4.5,4.5,0,0,1-1.017.592,5.441,5.441,0,0,1-2.2.423,6.474,6.474,0,0,1-5.85-3.8,6.026,6.026,0,0,1,1.357-6.762,6.445,6.445,0,0,1,2.035-1.352A6.291,6.291,0,0,1,223.361,24a4.59,4.59,0,0,1,1.865.423,5.342,5.342,0,0,1,1.611,1.1,7.188,7.188,0,0,1,1.272,1.606,6.754,6.754,0,0,1,.509,1.1m-5.257-1.691a3.653,3.653,0,0,0-2.628.93,3.041,3.041,0,0,0-.848,1.437c-.085.592.17.845.763.676l1.95-.761,2.035-.592c.509-.169.678-.676.339-1.014l-.339-.254a2.3,2.3,0,0,0-1.187-.338" transform="translate(-33.012 -3.714)" fill="#0a4ce0"/>
      <path id="Path_7309" data-name="Path 7309" d="M233.772,32.484c.594,0,1.017.254,1.017.592a.845.845,0,0,0,.509.761h1.865l.424-.338a1.128,1.128,0,0,0-.085-1.521l-.933-.507-1.187-.423-1.272-.592a2.793,2.793,0,0,1-.933-1.014,3.541,3.541,0,0,1-.339-1.775,3.2,3.2,0,0,1,.339-1.606,3.553,3.553,0,0,1,.933-1.1,3.735,3.735,0,0,1,1.187-.592l1.187-.169h.763l.933.254.933.423.339.169a2.362,2.362,0,0,1,.509,1.521v.676a1.016,1.016,0,0,1-1.017,1.014h-.254c-.594,0-1.017-.338-1.017-.676a.93.93,0,0,0-.678-.845h-.339a1.444,1.444,0,0,0-1.017.338.8.8,0,0,0,.254,1.352l.933.423,1.187.507,1.187.676a3.208,3.208,0,0,1,1.272,2.7,4.13,4.13,0,0,1-.17,1.1,3.8,3.8,0,0,1-.594,1.183,3.474,3.474,0,0,1-1.272,1.014,4.421,4.421,0,0,1-2.035.423,8.333,8.333,0,0,1-2.2-.338l-.933-.338a2.448,2.448,0,0,1-.763-1.691v-.676a1.016,1.016,0,0,1,1.017-1.014Z" transform="translate(-35.368 -3.745)" fill="#0a4ce0"/>
      <path id="Path_7310" data-name="Path 7310" d="M244,32.955c0-.592.339-1.014.678-1.014s.678-.423.678-1.014V15.966c0-.592-.339-1.014-.678-1.014S244,14.529,244,13.937v-.423a1.016,1.016,0,0,1,1.017-1.014h6.613l1.357.254a8.324,8.324,0,0,1,2.459,1.014,6.349,6.349,0,0,1,1.865,1.86,4.807,4.807,0,0,1,.763,2.7,6.075,6.075,0,0,1-1.7,4.564c-1.1,1.1-3.9,1.521-3.9,1.521l-2.035.169h-1.357A1.016,1.016,0,0,0,248.07,25.6v5.241a1.016,1.016,0,0,0,1.017,1.014h1.526a1.016,1.016,0,0,1,1.017,1.014v.423a1.016,1.016,0,0,1-1.017,1.014h-5.6A1.016,1.016,0,0,1,244,33.293Zm4.07-11.918a1.016,1.016,0,0,0,1.017,1.014H251.8a4.761,4.761,0,0,0,1.272-.254,4.241,4.241,0,0,0,1.441-.93,3.042,3.042,0,0,0,.763-1.183,3.878,3.878,0,0,0,.254-1.268,2.614,2.614,0,0,0-.339-1.352,3.978,3.978,0,0,0-1.017-1.1,4.753,4.753,0,0,0-1.441-.761l-.848-.169h-2.8a1.016,1.016,0,0,0-1.017,1.014Z" transform="translate(-37.117 -1.934)" fill="#0a4ce0"/>
      <path id="Path_7311" data-name="Path 7311" d="M259.8,30.37A5.986,5.986,0,0,1,260.309,28a6.085,6.085,0,0,1,1.357-1.944,6.445,6.445,0,0,1,2.035-1.352,6.291,6.291,0,0,1,2.459-.507,6.455,6.455,0,0,1,4.494,1.775,6.026,6.026,0,0,1,1.357,6.762,6.255,6.255,0,0,1-1.357,1.944,6.191,6.191,0,0,1-2.035,1.352,6.376,6.376,0,0,1-2.459.507,6.275,6.275,0,0,1-5.85-3.8,5.9,5.9,0,0,1-.509-2.367m2.628,0a3.514,3.514,0,0,0,2.2,3.381,3.656,3.656,0,0,0,2.8,0,3.817,3.817,0,0,0,1.187-.761,3.464,3.464,0,0,0,.763-1.183,3.624,3.624,0,0,0,0-2.789,3.725,3.725,0,0,0-1.95-1.944,3.656,3.656,0,0,0-2.8,0,3.562,3.562,0,0,0-1.187.761,3.8,3.8,0,0,0-.763,1.183,3.541,3.541,0,0,0-.254,1.437" transform="translate(-39.521 -3.745)" fill="#0a4ce0"/>
      <path id="Path_7312" data-name="Path 7312" d="M276.9,34.781a1.016,1.016,0,0,1,1.017-1.014h.339a1.016,1.016,0,0,0,1.018-1.014V28.019A1.016,1.016,0,0,0,278.257,27h0a1.016,1.016,0,0,1-1.017-1.014v-.423a1.016,1.016,0,0,1,1.017-1.014h2.289l1.017.169v1.86c.085.507.339.592.594.085l.424-.507,1.187-1.014,1.272-.676.424-.169a.754.754,0,0,1,.594.93v.507a1.354,1.354,0,0,1-1.1,1.183,4.5,4.5,0,0,0-2.035.93,3.462,3.462,0,0,0-.933,1.691,12.975,12.975,0,0,0-.17,2.029v1.183a1.016,1.016,0,0,0,1.017,1.014,1.016,1.016,0,0,1,1.017,1.014V35.2a1.016,1.016,0,0,1-1.017,1.014h-4.918A1.016,1.016,0,0,1,276.9,35.2Z" transform="translate(-42.122 -3.76)" fill="#0a4ce0"/>
      <path id="Path_7313" data-name="Path 7313" d="M292.913,16.514a1.016,1.016,0,0,1,1.017-1.014h.509a1.016,1.016,0,0,1,1.017,1.014v5.579a1.016,1.016,0,0,0,1.017,1.014h1.017a1.016,1.016,0,0,1,1.017,1.014v.507a1.016,1.016,0,0,1-1.017,1.014h-1.017a1.016,1.016,0,0,0-1.017,1.014v4.649a1.016,1.016,0,0,0,1.017,1.014h.254a1.016,1.016,0,0,1,1.017,1.014v.423a1.016,1.016,0,0,1-1.017,1.014h-2.883a1.016,1.016,0,0,1-1.017-1.014V26.742a1.016,1.016,0,0,0-1.017-1.014h-.594a1.016,1.016,0,0,1-1.017-1.014v-.507a1.016,1.016,0,0,1,1.017-1.014h.594a1.016,1.016,0,0,0,1.017-1.014Z" transform="translate(-44.145 -2.399)" fill="#0a4ce0"/>
      <path id="Path_7314" data-name="Path 7314" d="M29.276,20.391H22.154a.592.592,0,1,1,0-1.1h7.122a.591.591,0,0,1,0,1.1" transform="translate(-3.246 -2.979)" fill="#fff"/>
      <path id="Path_7315" data-name="Path 7315" d="M29.276,20.391H22.154a.592.592,0,1,1,0-1.1h7.122a.591.591,0,0,1,0,1.1Z" transform="translate(-3.246 -2.979)" fill="none" stroke="#fff" stroke-miterlimit="10" stroke-width="0.906"/>
      <rect id="Rectangle_12583" data-name="Rectangle 12583" width="6.19" height="4.531" transform="translate(19.332 11.918)" fill="none" stroke="#fff" stroke-linecap="round" stroke-linejoin="round" stroke-width="0.906"/>
      <path id="Path_7316" data-name="Path 7316" d="M22.792,12.925v-.592a3.136,3.136,0,1,1,6.19,0v.592" transform="translate(-3.461 -1.345)" fill="#fff"/>
      <path id="Path_7317" data-name="Path 7317" d="M22.792,12.925v-.592a3.136,3.136,0,1,1,6.19,0v.592" transform="translate(-3.461 -1.345)" fill="none" stroke="#fff" stroke-miterlimit="10" stroke-width="0.906"/>
      <path id="Path_7318" data-name="Path 7318" d="M26.995,17.3v-.845a.593.593,0,1,0-1.1,0V17.3Z" transform="translate(-3.932 -2.42)" fill="#fff"/>
      <line id="Line_349" data-name="Line 349" y1="1.014" transform="translate(22.469 6.931)" fill="none" stroke="#fff" stroke-linecap="round" stroke-linejoin="round" stroke-width="0.904"/>
      <path id="Path_7319" data-name="Path 7319" d="M30.814,34.969H20.3L22.25,20.6h6.613Z" transform="translate(-3.088 -3.188)" fill="none" stroke="#fff" stroke-linecap="round" stroke-linejoin="round" stroke-width="0.906"/>
      <path id="Path_7320" data-name="Path 7320" d="M30.022,26.179,29.683,23.3l-3.476-2.7H22.9Z" transform="translate(-3.484 -3.188)" fill="#fff"/>
      <path id="Path_7321" data-name="Path 7321" d="M22.139,24.1,21.8,26.467,30.7,33.4l-.339-2.874Z" transform="translate(-3.316 -3.729)" fill="#fff"/>
      <path id="Path_7322" data-name="Path 7322" d="M21,32.967,32.7,42.1l2.12-.93L21.339,30.6Z" transform="translate(-3.195 -4.735)" fill="#fff"/>
      <path id="Path_7323" data-name="Path 7323" d="M33.373,43.439H16.5L18.45,37.1H31.507Z" transform="translate(-2.51 -5.741)" fill="#fff"/>
      <path id="Path_7324" data-name="Path 7324" d="M33.373,43.439H16.5L18.45,37.1H31.507Z" transform="translate(-2.51 -5.741)" fill="none" stroke="#fff" stroke-miterlimit="10" stroke-width="0.906"/>
      <path id="Path_7325" data-name="Path 7325" d="M40.059,41.475c.933.93-2.544-.761-3.222-1.775a3.822,3.822,0,0,1-6.529,0,3.822,3.822,0,0,1-6.529,0,3.822,3.822,0,0,1-6.529,0,3.822,3.822,0,0,1-6.529,0A3.818,3.818,0,0,1,7.5,41.475v9.8H40.228s-.339-9.974-.17-9.8" transform="translate(-1.141 -6.143)" fill="#fff"/>
      <path id="Path_7326" data-name="Path 7326" d="M40.059,41.475A3.818,3.818,0,0,1,36.837,39.7a3.822,3.822,0,0,1-6.529,0,3.822,3.822,0,0,1-6.529,0,3.822,3.822,0,0,1-6.529,0,3.822,3.822,0,0,1-6.529,0A3.818,3.818,0,0,1,7.5,41.475" transform="translate(-1.141 -6.143)" fill="none" stroke="#0a4ce0" stroke-linecap="round" stroke-linejoin="round" stroke-width="1.27"/>
    </g>
  </g>
</svg>
