<svg xmlns="http://www.w3.org/2000/svg" width="18.276" height="15.939" viewBox="0 0 18.276 15.939">
  <g id="Group_3383" data-name="Group 3383" transform="translate(-470.345 -93.93)">
    <path id="Path_4556" data-name="Path 4556" d="M481.42,109.869a.571.571,0,0,1-.559-.694l.581-2.646h-9.117a1.983,1.983,0,0,1-1.98-1.98V95.911a1.983,1.983,0,0,1,1.98-1.981H486.64a1.984,1.984,0,0,1,1.981,1.981v8.638a1.983,1.983,0,0,1-1.981,1.98h-1.046l-3.806,3.205A.573.573,0,0,1,481.42,109.869Zm-9.1-14.8a.838.838,0,0,0-.837.837v8.638a.839.839,0,0,0,.837.837h9.828a.571.571,0,0,1,.558.694l-.372,1.7,2.678-2.256a.569.569,0,0,1,.368-.134h1.255a.838.838,0,0,0,.837-.837V95.911a.837.837,0,0,0-.837-.837Z" fill="#fff"/>
    <g id="Group_3382" data-name="Group 3382">
      <circle id="Ellipse_106" data-name="Ellipse 106" cx="0.997" cy="0.997" r="0.997" transform="translate(474.834 99.402)" fill="#fff"/>
      <circle id="Ellipse_107" data-name="Ellipse 107" cx="0.997" cy="0.997" r="0.997" transform="translate(478.486 99.402)" fill="#fff"/>
      <circle id="Ellipse_108" data-name="Ellipse 108" cx="0.997" cy="0.997" r="0.997" transform="translate(482.139 99.402)" fill="#fff"/>
    </g>
  </g>
</svg>
