<svg xmlns="http://www.w3.org/2000/svg" width="14.038" height="13.962" viewBox="0 0 14.038 13.962">
  <path id="Path_1031" data-name="Path 1031" d="M479.741,1548.933a2.1,2.1,0,0,1,1.457-1.751,1.049,1.049,0,0,1,1.21.281l1.253,1.922s.594.794.3,1.4c-.4.846-1.037,1.339-.3,2.311a15.714,15.714,0,0,0,2.856,2.825c.976.729,1.466.093,2.309-.316.608-.3,1.406.294,1.406.294l1.93,1.241a1.049,1.049,0,0,1,.288,1.208,2.1,2.1,0,0,1-1.742,1.468C487.044,1559.947,479.441,1553.813,479.741,1548.933Z" transform="translate(-479.13 -1546.461)" fill="none" stroke="#71be9f" stroke-linecap="round" stroke-miterlimit="10" stroke-width="1.2"/>
</svg>
