<svg xmlns="http://www.w3.org/2000/svg" width="141.316" height="34.319" viewBox="0 0 141.316 34.319">
  <g id="rionet_logo_wh" transform="translate(-37.261 -134.132)">
    <g id="Group_3406" data-name="Group 3406">
      <g id="Group_3403" data-name="Group 3403">
        <g id="Group_3402" data-name="Group 3402">
          <path id="Path_4566" data-name="Path 4566" d="M148.79,142.826l-1.434.54s.242.343.515.815h-1.928v-1.456h-1.61v1.456h-3.474v1.63h3.474v.742h-3.222v.416h0v1.293l-.585-.5a10.224,10.224,0,0,1-.774,1.333l.836.78a6.352,6.352,0,0,0,.523-.932V150.8a12.051,12.051,0,0,1-1.8-1.762,10.755,10.755,0,0,0,1.276-2.659v-1.492h-1.3v-2.177h-1.662v2.177h-1.269v1.647h2.454c-.528,1.812-2.819,4.026-2.819,4.026l.585,2.082s.447-.493,1.047-1.249v5.042h1.664v-5.218a11.069,11.069,0,0,0,1.061,1.125l.757-1.332V156.4h1.61V153.15h1.612V156.4h1.61V153.15h1.606v.628h0v.436a.381.381,0,0,1-.387.386h-.868l.422,1.719h.75a2.771,2.771,0,0,0,1.1-.212,1.121,1.121,0,0,0,.652-1.117l0-1.212h0v-6.7h0v-.524h-3.269v-.742h3.414v-.829l.6-.282A14.254,14.254,0,0,0,148.79,142.826Zm-6.069,5.277h1.612v1.01h-1.612Zm0,3.582v-1.107h1.612v1.107Zm3.222,0v-1.107h1.606v1.107Zm1.606-3.582v1.01h-1.606V148.1Z" fill="#fff"/>
          <path id="Path_4567" data-name="Path 4567" d="M161.347,151.61a14.966,14.966,0,0,1,1.262,3.51l1.594-.721a14.545,14.545,0,0,0-1.367-3.46Z" fill="#fff"/>
          <path id="Path_4568" data-name="Path 4568" d="M160.5,154.034s-.025.467-.633.467h-.579a.29.29,0,0,1-.259-.279v-2.591a8.363,8.363,0,0,1,1.2,1.082l1.169-1.271a13.1,13.1,0,0,0-1.48-1.134h3.639V148.9h0v-1.441h0v-1.41h-2.889v-.662H164v-1.608h-3.336v-1.036h-1.662v1.036h-3.2v-.494h-5.188v1.658h.655v8.038l-.66.229.168,1.794,2.856-1.136v2.54h1.459V154.62l1.312.726a16.916,16.916,0,0,0,.8-3.721l-1.425-.338a8.672,8.672,0,0,1-.692,2.935v-9.281h.558v.444h3.356v.662h-3.061v1.41h0V148.9h0v1.41h2.891l-.7.7s.195.123.475.322h-1.208v3.81h0v.181a.831.831,0,0,0,.3.616,2.047,2.047,0,0,0,1.148.228h.617a4.113,4.113,0,0,0,1.979-.382c.425-.333.469-.712.7-2.2l-1.572-.516Zm-7.769-6.225h.9v1.31h-.9Zm0,4.665v-1.752h.9v1.438Zm.9-6.268h-.9v-1.265h.9Zm6.451,1.251V148.9h-.677v-1.441Zm2,1.441h-.673v-1.441h.673Zm-4.725-1.441h.718V148.9h-.718Z" fill="#fff"/>
          <path id="Path_4569" data-name="Path 4569" d="M178.577,151.329c-2.485-.613-3.412-1.3-3.757-1.711h3.48V148.01h-6.572c.154-.231.3-.471.441-.718h5.336v-1.486h0v-1.118h0v-1.51h-5.549v3.676l-.795-.088v-.96h0v-1.118h0v-1.51h-5.55v4.114h4.456a6.727,6.727,0,0,1-.421.718h-4.781v1.608h3.318a10.145,10.145,0,0,1-3.611,1.9l.687,1.69s.317-.129.8-.369V156.3h1.711v-.6h3.386v-1.547h0v-1.61h0v-1.511h-2.2c.042-.033.083-.067.125-.1a14.53,14.53,0,0,0,1.372-1.307h1.977a8.2,8.2,0,0,0,1.51,1.409h-2.178v5.27h1.711v-.6h2.007v.6h1.673V152.76c.536.21.882.314.882.314Zm-5.011-6.641h2.37v1.118h-2.37Zm-6.344,0h2.37v1.118h-2.37Zm2.265,9.46h-1.712v-1.61h1.712Zm3.991,0v-1.61h2.007v1.61Z" fill="#fff"/>
        </g>
      </g>
      <g id="Group_3405" data-name="Group 3405">
        <g id="Group_3404" data-name="Group 3404">
          <rect id="Rectangle_2617" data-name="Rectangle 2617" width="3.963" height="7.339" transform="translate(60.632 142.708)" fill="#fff"/>
          <path id="Path_4570" data-name="Path 4570" d="M74.062,142.709H69.971v5.707c-.074,1.271-.006,3.256-1.234,4.621-1.36,1.512-3.239,1.208-6.384,1.263v2.115c4.864-.006,6.054.18,7.519-.541,3.011-1.481,4.13-4.2,4.189-7.456h0Z" fill="#fff"/>
          <path id="Path_4571" data-name="Path 4571" d="M127.781,147.313a3.548,3.548,0,0,1-1.378-2.435v-2.17h-4.181v13.7H126.4v-7.244a3.267,3.267,0,0,0,2.14,1.179,39.534,39.534,0,0,0,5.644.081v-2.633C130.714,147.737,128.739,148.014,127.781,147.313Z" fill="#fff"/>
          <path id="Path_4572" data-name="Path 4572" d="M105.318,143.911h-3.332v0h-.171v-1.206H97.851v1.206H92.833v2.006h9.057l0,.016a5.781,5.781,0,0,1-2.334,3.916c-2.238,1.815-4.549,1.328-6.725,1.475v2.124a22.751,22.751,0,0,0,5.022-.258v3.216h3.964v-4.331a43.389,43.389,0,0,1,4.743,1.933v-2.6a20.416,20.416,0,0,0-2.6-.861c.017-.013.034-.025.05-.039a7.167,7.167,0,0,0,2.7-5.277A1.322,1.322,0,0,0,105.318,143.911Z" fill="#fff"/>
          <path id="Path_4573" data-name="Path 4573" d="M112.1,151.36a12.259,12.259,0,0,0-.924-5.01h-2.627s.876,1.459,1.022,5.01Z" fill="#fff"/>
          <path id="Path_4574" data-name="Path 4574" d="M115.4,151.36a12.259,12.259,0,0,0-.924-5.01h-2.627s.875,1.459,1.021,5.01Z" fill="#fff"/>
          <path id="Path_4575" data-name="Path 4575" d="M116.506,150.241A3.814,3.814,0,0,1,114,153.783a14.022,14.022,0,0,1-4.341.507v2.119c1.739,0,5.29.317,7.552-1.118a5.875,5.875,0,0,0,3.04-5.05V146.3h-3.745Z" fill="#fff"/>
          <path id="Path_4576" data-name="Path 4576" d="M89.458,142.708H85.522v1.574H75.874V146.3h4.712a27.166,27.166,0,0,1-1.337,4.864c-1.094,2.921-3.374,3.048-3.374,3.048v2.2a8.263,8.263,0,0,0,4.258-1.4,10.644,10.644,0,0,0,3.259-4.484,26.651,26.651,0,0,0,1.315-4.223h.815v10.108h3.936V146.3h1.437v-2.019H89.458Z" fill="#fff"/>
        </g>
      </g>
    </g>
    <g id="Group_3408" data-name="Group 3408">
      <g id="Group_3407" data-name="Group 3407">
        <path id="Path_4577" data-name="Path 4577" d="M53.018,144.577c-.108.486-.167,1.006-.3,1.588a3.1,3.1,0,0,1-.342,1.42,2.187,2.187,0,0,1-.585,1.174A17.739,17.739,0,0,1,49.55,151.3c-.3.313-.24.222-.8.511s-1.8.512-2.315.8l-.328.2-1.452,1.594c-.759.907-.5,1.029-1.014,2.414a22.734,22.734,0,0,0-1.307,5.058,4.026,4.026,0,0,1-.361,1.069c-.181.432-.19.563-.4.753a4.44,4.44,0,0,0-1.075.737s-.193.151-.183.125c-.211.177-.2.452-.533.468a3.419,3.419,0,0,1-1.324-.471,2.981,2.981,0,0,1-.406-.119c-.292-.111-.306-.419-.478-.626a4.362,4.362,0,0,1-.306-1.694c.019-.057.225-.519.225-.519s.136-.354.281-.7a18.363,18.363,0,0,0,.962-2.126c1.525-5.2,7.348-6.391,8.264-11.869,0,0,.459-2.278.5-3.156a10.694,10.694,0,0,0-2.189-4.779c-.389-.406-.845-.781-1.276-1.184-.58-.957-1.725-1.436-2.447-2.222a10.061,10.061,0,0,0-1.106-.507.711.711,0,0,1-.11-.3,1.526,1.526,0,0,1,.386-.21,7.817,7.817,0,0,1,1.227-.388c.938-.128,1.747.189,2.644.063a8.922,8.922,0,0,1,1.639.482c1.062.455,2.44.374,3.259,1.457.226.19.524.358.751.524a6.984,6.984,0,0,1,1.04.84,5.041,5.041,0,0,1,.531.795,1.668,1.668,0,0,1,.29.721c.006.123.295.619.3.77a4.037,4.037,0,0,0,.388,1.118A6.652,6.652,0,0,1,53,141.7a2.386,2.386,0,0,1,.121,1.075A4.892,4.892,0,0,1,53.018,144.577Z" fill="#fff"/>
        <path id="Path_4578" data-name="Path 4578" d="M49.526,152.458a9.944,9.944,0,0,1,1.8,2.545c.091.174.358.761.489,1.059.2.394.143.872.375,1.235a3.343,3.343,0,0,1,.289.791,14.958,14.958,0,0,1,.919,1.821,3.33,3.33,0,0,0,.31.712,24.619,24.619,0,0,0,2.16,4.04,20.308,20.308,0,0,1,1.3,3.244c.034.17.129.445-.1.54a.169.169,0,0,1-.163-.036c-1.385-3.673-5.253-5.948-7.536-9.023-.377-.335-1.119-1.17-1.683-1.691a25.174,25.174,0,0,1-3.151-4.02,8.3,8.3,0,0,1-.677-3.73c.154-.282.188-.3.188-.3s.162-.145.312-.059C46.19,150.309,48.148,150.972,49.526,152.458Z" fill="#fff"/>
        <path id="Path_4579" data-name="Path 4579" d="M43.24,144.679c.34.392.65.291.852,1.4a2.212,2.212,0,0,1-.1,1.1,5.021,5.021,0,0,1-2.513,1.009s-1.175-.672-1.213-1.343c0-.281-.112-.542-.037-.766.056-.485-.01-.916.363-1.327l.309-.259a4.526,4.526,0,0,1,1.884-.13A1.37,1.37,0,0,1,43.24,144.679Z" fill="#fff"/>
      </g>
    </g>
  </g>
</svg>
