<svg xmlns="http://www.w3.org/2000/svg" width="154" height="23.565" viewBox="0 0 154 23.565">
  <g id="rion_logo_wh" transform="translate(-99.217 -295.353)">
    <g id="Group_2222" data-name="Group 2222" transform="translate(147.259 303.888)">
      <g id="Group_2220" data-name="Group 2220">
        <rect id="Rectangle_1704" data-name="Rectangle 1704" width="2.879" height="8.016" transform="translate(0 0)" fill="#fff"/>
        <path id="Path_1629" data-name="Path 1629" d="M230.354,319a20.532,20.532,0,0,0-.111-3.112h-2.812s.115,1.786.041,4.06c-.019.616-.061,1.32-.121,2s-.14,1.363-.217,1.888a3.673,3.673,0,0,1-2.625,3.109,11.9,11.9,0,0,1-2.524.282c-.406,0-3.781.01-3.781.01v2.791h1.75a40.478,40.478,0,0,0,4.721-.181,6.261,6.261,0,0,0,3.264-1.61,6.951,6.951,0,0,0,1.718-2.541,16.654,16.654,0,0,0,.588-3.61C230.285,321.33,230.354,319.34,230.354,319Z" transform="translate(-216.785 -315.884)" fill="#fff"/>
      </g>
      <g id="Group_2221" data-name="Group 2221" transform="translate(30.901 0.05)">
        <path id="Path_1630" data-name="Path 1630" d="M302.657,325.684l-.042-2.417h-2.839a29.221,29.221,0,0,1-.045,4.053,6.282,6.282,0,0,1-.323,1.519,4.018,4.018,0,0,1-1.277,1.805,5.19,5.19,0,0,1-2.638.833c-1.124.042-1.891.015-2.59.015l-3.779.006v2.791h6.021a6.729,6.729,0,0,0,6.109-2.756,6.59,6.59,0,0,0,1.188-3.111A24.451,24.451,0,0,0,302.657,325.684Z" transform="translate(-289.124 -320.248)" fill="#fff"/>
        <path id="Path_1631" data-name="Path 1631" d="M292.456,319.348a19.3,19.3,0,0,1,3.459,1.395V317.6a16.23,16.23,0,0,0-3.153-1.045,15.8,15.8,0,0,0-3.537-.549v2.734A31.219,31.219,0,0,1,292.456,319.348Z" transform="translate(-289.183 -316.005)" fill="#fff"/>
      </g>
      <path id="Path_1632" data-name="Path 1632" d="M265.538,317.842h-1.417l-.16-1.958h-2.873l.158,1.958H252.01v2.733h4.871a11.873,11.873,0,0,1-.451,1.67,13.642,13.642,0,0,1-.937,2.072,5.994,5.994,0,0,1-1.3,1.687,5.351,5.351,0,0,1-1.654,1.114,2.211,2.211,0,0,1-.569.128v2.728a5.619,5.619,0,0,0,2.1-.555,8.175,8.175,0,0,0,2.52-1.989,11.831,11.831,0,0,0,1.541-2.3,15.832,15.832,0,0,0,1.208-3.145c.171-.632.275-1.119.331-1.409h1.791l.759,9.4h2.893l-.773-9.4h1.192Z" transform="translate(-236.515 -315.884)" fill="#fff"/>
    </g>
    <g id="Group_2223" data-name="Group 2223" transform="translate(194.033 303.797)">
      <path id="Path_1633" data-name="Path 1633" d="M334.984,319.835a8.378,8.378,0,0,1-.912,1.721l-1.586-1.077c.06-.075.09-.1.12-.15h-1.316v.942a10.363,10.363,0,0,0,2.095,2.813l-1.092,1.511a9.31,9.31,0,0,1-1-1.856v6.315h-1.721v-6.24A11.031,11.031,0,0,1,328,327.151l-.688-2.349a13.768,13.768,0,0,0,2.095-4.474h-1.81v-1.736h1.975v-2.6h1.721v2.6h1.646v1.242a11.223,11.223,0,0,0,1.2-3.456l1.8.21c-.09.419-.165.763-.359,1.5h.943v-2.095h1.765v2.095h3.1v1.751h-3.1v1.8h3.367v1.781h-2.813a10.689,10.689,0,0,0,3.067,3.606l-.838,2.035a10.98,10.98,0,0,1-2.784-3.786v4.788H336.51v-4.773a11.253,11.253,0,0,1-3.127,3.726l-1.107-1.706a11.48,11.48,0,0,0,3.7-3.89h-3.037V321.63h3.576v-1.8Z" transform="translate(-327.308 -315.854)" fill="#fff"/>
      <path id="Path_1634" data-name="Path 1634" d="M363.812,327.53c.868-.075,1.706-.15,3.008-.3v-4h-2.693v-1.8h7.137v1.8H368.69v3.741c1.272-.18,2.245-.344,3.053-.478l.014,1.8c-2.095.449-4.953.823-7.691,1.152Zm12.359-9.5h1.736v1.8h-4.354c.21,5.133,1.541,7.721,2.229,7.721.539,0,.9-1.3,1.107-2.14l1.242,1.5c-.15.658-.7,2.993-2.185,2.993-.793,0-3.92-.673-4.294-10.07h-7.766v-1.8h7.706c-.015-.419-.045-1.93-.045-2.244h1.93c0,.239.015,1.287.03,2.244h2.125a9.185,9.185,0,0,0-1.691-1.392l1.331-.972a7.688,7.688,0,0,1,1.99,1.571Z" transform="translate(-348.638 -315.665)" fill="#fff"/>
      <path id="Path_1635" data-name="Path 1635" d="M402.789,320.78a20.741,20.741,0,0,1-2.409,1.257l-.928-1.841c3.636-1.421,5.416-3.082,6.225-4.279H407.8c.808,1.017,2.274,2.693,6.179,4.279l-.957,1.826a14.615,14.615,0,0,1-2.364-1.272v.853h-7.871Zm8.678,9.382c-.165-.3-.269-.524-.6-1.063a92.549,92.549,0,0,1-10.414.644l-.239-1.886c.195,0,1.8.015,2.14.015a22.18,22.18,0,0,0,1.287-3.1h-3.591v-1.75h13.317v1.75h-7.586c-.569,1.332-.943,2.184-1.407,3.082.479,0,2.978-.06,5.432-.254-.329-.449-.718-.942-1.511-1.855l1.586-.853a23.868,23.868,0,0,1,3.292,4.295Zm-1.99-10.22a14.873,14.873,0,0,1-2.753-2.529,11.922,11.922,0,0,1-2.694,2.529Z" transform="translate(-369.462 -315.812)" fill="#fff"/>
      <path id="Path_1636" data-name="Path 1636" d="M439.534,330.042h-1.871V324.61a16.466,16.466,0,0,1-1.706,1.332l-.614-2.05a10.641,10.641,0,0,0,3.831-4.01h-3.606v-1.751h2.095v-2.214h1.871v2.214h1.661v1.751a13.927,13.927,0,0,1-1.377,2.349,7.137,7.137,0,0,0,2.08,1.736l-.913,1.751a10.52,10.52,0,0,1-1.451-1.541Zm4.818-14.125h1.9v4.01h3.082v1.9h-3.082v5.865h3.367v1.886h-8.888v-1.886h3.621v-5.865h-2.933v-1.9h2.933Z" transform="translate(-390.434 -315.812)" fill="#fff"/>
    </g>
    <g id="Group_2224" data-name="Group 2224" transform="translate(99.217 295.353)">
      <path id="Path_1637" data-name="Path 1637" d="M150.468,340.978l-3.524-6.346c-1.581.794-3.261,1.546-5.022,2.238a56.18,56.18,0,0,1-12.356,3.436v.672Z" transform="translate(-116.95 -318.304)" fill="#fff"/>
      <path id="Path_1638" data-name="Path 1638" d="M143.477,298.15c-1.811-4.295-13.019-3.513-25.158,1.451s-20.85,12.336-18.8,16.523,13.094,3.571,25.26-1.211C136.981,310.116,145.287,302.445,143.477,298.15Zm-19.758,14.257c-11.041,4.514-21.184,5.561-22.58,2.252s6.487-9.721,17.527-14.235,21.122-5.491,22.516-2.182S134.759,307.894,123.719,312.407Z" transform="translate(-99.217 -295.353)" fill="#fff"/>
      <path id="Path_1639" data-name="Path 1639" d="M145.6,310.86l-1.1-1.99a5.354,5.354,0,0,0,3.9-5.154,5.159,5.159,0,0,0-1.44-3.587,7.01,7.01,0,0,0-2.934-1.647,15.118,15.118,0,0,0-4.66-.409h-9.805v18.369a57.467,57.467,0,0,0,11.3-3.439C142.524,312.324,144.11,311.6,145.6,310.86Z" transform="translate(-116.95 -296.942)" fill="#fff"/>
    </g>
  </g>
</svg>
